<?xml version="1.0" standalone="no"?>
<!DOCTYPE svg PUBLIC "-//W3C//DTD SVG 20010904//EN"
 "http://www.w3.org/TR/2001/REC-SVG-20010904/DTD/svg10.dtd">
<svg version="1.0" xmlns="http://www.w3.org/2000/svg"
 width="240.000000pt" height="240.000000pt" viewBox="0 0 240.000000 240.000000"
 preserveAspectRatio="xMidYMid meet">
<metadata>
Created by potrace 1.11, written by Peter Selinger 2001-2013
</metadata>
<g transform="translate(0.000000,240.000000) scale(0.100000,-0.100000)"
fill="#000000" stroke="none">
<path d="M652 2018 l3 -103 58 -3 57 -3 0 -709 0 -710 -60 0 -60 0 0 -106 0
-106 388 4 c357 4 393 6 465 26 193 53 328 171 372 326 27 94 18 223 -22 308
-35 74 -105 156 -168 196 -22 14 -69 36 -105 48 -49 18 -60 24 -45 30 134 45
227 142 268 281 72 241 -16 471 -216 563 -115 53 -179 60 -577 60 l-361 0 3
-102z m810 -141 c103 -51 141 -117 142 -247 0 -97 -23 -162 -77 -218 -74 -78
-168 -101 -399 -102 l-138 0 0 301 0 301 208 -4 c203 -3 208 -4 264 -31z m-81
-787 c121 -23 230 -98 270 -185 23 -49 25 -170 5 -219 -21 -50 -83 -114 -139
-143 -80 -40 -164 -53 -354 -53 l-173 0 0 305 0 305 169 0 c92 0 192 -5 222
-10z"/>
</g>
</svg>
